<mxfile host="app.diagrams.net" agent="Mozilla/5.0 (Windows NT 10.0; Win64; x64) AppleWebKit/537.36 (KHTML, like Gecko) Chrome/139.0.0.0 Safari/537.36 Edg/139.0.0.0" version="28.0.7">
  <diagram name="第 1 页" id="l-5mR6PXXGIu8AcaOCo6">
    <mxGraphModel dx="1418" dy="794" grid="1" gridSize="10" guides="1" tooltips="1" connect="1" arrows="1" fold="1" page="1" pageScale="1" pageWidth="827" pageHeight="1169" math="0" shadow="0">
      <root>
        <mxCell id="0" />
        <mxCell id="1" parent="0" />
        <mxCell id="VwCtaaxNtZ_b3EBbT_sB-2" value="D" style="ellipse;whiteSpace=wrap;html=1;aspect=fixed;" parent="1" vertex="1">
          <mxGeometry x="530" y="240" width="80" height="80" as="geometry" />
        </mxCell>
        <mxCell id="3s84qQ_Xb1j6stL4iub7-6" style="edgeStyle=orthogonalEdgeStyle;rounded=0;orthogonalLoop=1;jettySize=auto;html=1;exitX=0.5;exitY=1;exitDx=0;exitDy=0;" edge="1" parent="1" source="3s84qQ_Xb1j6stL4iub7-1" target="3s84qQ_Xb1j6stL4iub7-2">
          <mxGeometry relative="1" as="geometry" />
        </mxCell>
        <mxCell id="3s84qQ_Xb1j6stL4iub7-1" value="A" style="ellipse;whiteSpace=wrap;html=1;aspect=fixed;" vertex="1" parent="1">
          <mxGeometry x="40" y="70" width="80" height="80" as="geometry" />
        </mxCell>
        <mxCell id="3s84qQ_Xb1j6stL4iub7-2" value="B" style="ellipse;whiteSpace=wrap;html=1;aspect=fixed;" vertex="1" parent="1">
          <mxGeometry x="40" y="350" width="80" height="80" as="geometry" />
        </mxCell>
        <mxCell id="3s84qQ_Xb1j6stL4iub7-3" value="C" style="ellipse;whiteSpace=wrap;html=1;aspect=fixed;" vertex="1" parent="1">
          <mxGeometry x="530" y="100" width="80" height="80" as="geometry" />
        </mxCell>
      </root>
    </mxGraphModel>
  </diagram>
</mxfile>
